<svg xmlns="http://www.w3.org/2000/svg" width="980" height="520" viewBox="0 0 980 520"><rect width="100%" height="100%" fill="#fbfcfa"/><text x="24" y="38" font-size="26" font-weight="700" font-family="Arial" fill="#1e2528">Maiores gastos em saúde per capita</text><g font-family="Arial"><text x="24" y="92" font-size="15" fill="#1e2528">Inocência - MS</text><rect x="260" y="70" width="570.0" height="26" rx="4" fill="#1f8a5b"/><text x="838" y="89" font-size="14" fill="#364044">R$ 4.647</text>
<text x="24" y="134" font-size="15" fill="#1e2528">Jateí - MS</text><rect x="260" y="112" width="560.1" height="26" rx="4" fill="#1f8a5b"/><text x="828.0583178213667" y="131" font-size="14" fill="#364044">R$ 4.566</text>
<text x="24" y="176" font-size="15" fill="#1e2528">Taquarussu - MS</text><rect x="260" y="154" width="538.4" height="26" rx="4" fill="#1f8a5b"/><text x="806.4135400639129" y="173" font-size="14" fill="#364044">R$ 4.389</text>
<text x="24" y="218" font-size="15" fill="#1e2528">São Gabriel do Oeste - MS</text><rect x="260" y="196" width="523.8" height="26" rx="4" fill="#1f8a5b"/><text x="791.8180957402167" y="215" font-size="14" fill="#364044">R$ 4.270</text>
<text x="24" y="260" font-size="15" fill="#1e2528">Alcinópolis - MS</text><rect x="260" y="238" width="521.6" height="26" rx="4" fill="#1f8a5b"/><text x="789.640861210041" y="257" font-size="14" fill="#364044">R$ 4.253</text>
<text x="24" y="302" font-size="15" fill="#1e2528">Porto Murtinho - MS</text><rect x="260" y="280" width="470.9" height="26" rx="4" fill="#1f8a5b"/><text x="738.9413486265184" y="299" font-size="14" fill="#364044">R$ 3.839</text>
<text x="24" y="344" font-size="15" fill="#1e2528">Paraíso das Águas - MS</text><rect x="260" y="322" width="457.5" height="26" rx="4" fill="#1f8a5b"/><text x="725.4976920345604" y="341" font-size="14" fill="#364044">R$ 3.730</text>
<text x="24" y="386" font-size="15" fill="#1e2528">Vicentina - MS</text><rect x="260" y="364" width="438.5" height="26" rx="4" fill="#1f8a5b"/><text x="706.4643691023144" y="383" font-size="14" fill="#364044">R$ 3.575</text>
<text x="24" y="428" font-size="15" fill="#1e2528">Figueirão - MS</text><rect x="260" y="406" width="429.0" height="26" rx="4" fill="#1f8a5b"/><text x="697.0439965999204" y="425" font-size="14" fill="#364044">R$ 3.498</text>
<text x="24" y="470" font-size="15" fill="#1e2528">Santa Rita do Pardo - MS</text><rect x="260" y="448" width="384.3" height="26" rx="4" fill="#1f8a5b"/><text x="652.2886409365283" y="467" font-size="14" fill="#364044">R$ 3.133</text></g></svg>