<svg xmlns="http://www.w3.org/2000/svg" width="980" height="520" viewBox="0 0 980 520"><rect width="100%" height="100%" fill="#fbfcfa"/><text x="24" y="38" font-size="26" font-weight="700" font-family="Arial" fill="#1e2528">Maior produção APS por mil habitantes</text><g font-family="Arial"><text x="24" y="92" font-size="15" fill="#1e2528">Jateí - MS</text><rect x="260" y="70" width="570.0" height="26" rx="4" fill="#1f8a5b"/><text x="838" y="89" font-size="14" fill="#364044">26.635,4</text>
<text x="24" y="134" font-size="15" fill="#1e2528">Deodápolis - MS</text><rect x="260" y="112" width="540.1" height="26" rx="4" fill="#1f8a5b"/><text x="808.1370328703548" y="131" font-size="14" fill="#364044">25.239,9</text>
<text x="24" y="176" font-size="15" fill="#1e2528">Caracol - MS</text><rect x="260" y="154" width="529.3" height="26" rx="4" fill="#1f8a5b"/><text x="797.2964115328771" y="173" font-size="14" fill="#364044">24.733,3</text>
<text x="24" y="218" font-size="15" fill="#1e2528">Batayporã - MS</text><rect x="260" y="196" width="516.4" height="26" rx="4" fill="#1f8a5b"/><text x="784.434063380271" y="215" font-size="14" fill="#364044">24.132,3</text>
<text x="24" y="260" font-size="15" fill="#1e2528">Inocência - MS</text><rect x="260" y="238" width="509.7" height="26" rx="4" fill="#1f8a5b"/><text x="777.660470890954" y="257" font-size="14" fill="#364044">23.815,8</text>
<text x="24" y="302" font-size="15" fill="#1e2528">Taquarussu - MS</text><rect x="260" y="280" width="504.9" height="26" rx="4" fill="#1f8a5b"/><text x="772.9454030706811" y="299" font-size="14" fill="#364044">23.595,4</text>
<text x="24" y="344" font-size="15" fill="#1e2528">Novo Horizonte do Sul - MS</text><rect x="260" y="322" width="494.4" height="26" rx="4" fill="#1f8a5b"/><text x="762.3958080922466" y="341" font-size="14" fill="#364044">23.102,5</text>
<text x="24" y="386" font-size="15" fill="#1e2528">Eldorado - MS</text><rect x="260" y="364" width="490.7" height="26" rx="4" fill="#1f8a5b"/><text x="758.6778299679725" y="383" font-size="14" fill="#364044">22.928,7</text>
<text x="24" y="428" font-size="15" fill="#1e2528">Glória de Dourados - MS</text><rect x="260" y="406" width="489.0" height="26" rx="4" fill="#1f8a5b"/><text x="757.0296789487904" y="425" font-size="14" fill="#364044">22.851,7</text>
<text x="24" y="470" font-size="15" fill="#1e2528">Bataguassu - MS</text><rect x="260" y="448" width="474.5" height="26" rx="4" fill="#1f8a5b"/><text x="742.5293052692836" y="467" font-size="14" fill="#364044">22.174,1</text></g></svg>